<svg aria-hidden="true" style="position:absolute;width:0;height:0;overflow:hidden" xmlns="http://www.w3.org/2000/svg">
  <defs>
    <symbol id="icon-like" viewBox="0 0 33 32">
      <path d="M27.288 16.307c.371.273.712.544.712 1.498 0 .956-.482 1.342-.998 1.611.211.363.278.799.187 1.213-.162.764-.825 1.358-1.415 1.533.255.431.335.855.031 1.378-.389.656-.728.904-2.227.904h-6.105c-2.08 0-3.158-1.213-3.158-2.222v-5.189c0-2.733 3.089-5.056 3.089-6.956l-.223-2.367c-.011-.144.017-.498.122-.6.168-.176.634-.444 1.337-.444.459 0 .764.091 1.124.273 1.223.616 1.541 2.173 1.541 3.427 0 .602-.871 2.407-.989 3.031 0 0 1.825-.427 3.956-.442 2.234-.013 3.682.422 3.682 1.871 0 .58-.461 1.162-.665 1.48zm-18.025-.751h1.684c.335 0 .656.14.893.391s.37.589.37.943v8.444c0 .354-.133.693-.37.943s-.558.391-.893.391H9.263c-.335 0-.656-.141-.893-.391S8 25.688 8 25.334V16.89c0-.354.133-.693.37-.943s.558-.391.893-.391z"/>
    </symbol>
    <symbol id="icon-RecommendIcon" viewBox="0 0 32 32">
      <path d="M0 0h32v32H0V0z"/>
    </symbol>
    <symbol id="icon-Arrow" viewBox="0 0 36 32">
      <path d="M2.088 30.425a1.252 1.252 0 0 1-1.25-1.312c0-.188 1.288-18.338 19.487-19.763V2.825c0-.248.074-.491.212-.698a1.244 1.244 0 0 1 1.291-.528c.243.05.466.172.64.35l12.337 12.6a1.25 1.25 0 0 1 0 1.75l-12.337 12.6a1.247 1.247 0 0 1-1.931-.178 1.257 1.257 0 0 1-.212-.698v-6.4c-12.15.463-17.131 8.125-17.181 8.219a1.25 1.25 0 0 1-1.056.581zM22.825 5.887v4.631a1.25 1.25 0 0 1-1.206 1.25c-11.775.431-15.988 8.275-17.5 13.319 3.125-2.7 8.694-6 17.381-6h.056a1.25 1.25 0 0 1 1.25 1.25v4.631l9.375-9.538-9.356-9.544z"/>
    </symbol>
    <symbol id="icon-chat_bubble" viewBox="0 0 32 32">
      <path d="M3.726 28.855V6.345c0-.688.245-1.277.735-1.767s1.078-.734 1.766-.734h20.009c.688 0 1.277.245 1.767.734s.734 1.079.734 1.767v15.007c0 .688-.245 1.277-.734 1.767s-1.079.734-1.767.734H8.728l-5.002 5.002zm2.501-6.034 1.469-1.469h18.54V6.345H6.227v16.476z"/>
    </symbol>
    <symbol id="icon-blue" viewBox="0 0 259 32">
      <path fill="#009fe3" style="fill:var(--color1, #009fe3)" d="M232.204 31.042c.905-2.926 10.778-4.025 3.832-4.848-2.539-.301.534.541-1.336-.19-.833-.324 2.264-.324 1.44-.398-.266-.021.498-.065.719-.065l-8.064-.242c1.657 0 5.286.065 6.524.057l4.503-.124c.546-1.076 1.679-.314-3.748-.695a60.817 60.817 0 0 1-5.731-.589s5.06-.952 1.973-1.185c-.407-.03-.355-.091-.419-.141 5.458.24 3.262.25 5.813.145-1.049-.545-1.485-.232 3.394-1.451l1.566-.381c2.661-.497-1.296.234 1.792-.274 7.058-1.16 3.262-1.166 1.811-1.594-1.71-.507-1.78-.316-.312-.589.115-.021.408-.08.537-.103l3.135-.305c-1.648-.204-2.307-.227-3.114-.457-1.734-.497 0-.631.058-.642l1.461-.236c.117-.021.38-.074.498-.097l1.844-1c.048-.019.24-.076.312-.095.136-.034.754-.137.944-.166 1.255-.191-.436-.12 2.368-.238l-5.58-.507a11.01 11.01 0 0 1-1.013-.088c5.53.232 3.14.301 7.518.038 1.363-1.053.254-.72-.06-1.333-.532-1.027-.391-.057 1.624-.992l-6.599-.651c-4.407-.244.22.048-6.9.017 1.411-.341.666-.109.601-.417l-.208-.191a3.17 3.17 0 0 0-.544-.164c-.283-.069-2.028-.143-3.832-.716.153-.015 1.724-.227 2.474-.303.335-.034 1.348-.135 1.724-.164.268-.019.642-.046.924-.063l3.113-.111 4.393-.103c2.905-.04.745-.122 4.706 0-1.545-.952-3.205-.086-2.656-.745.24-.297 0-.089 1.844-.242l2.016-.131c-.24-.021.779-.04 1.131-.069-3.64-.451-3.202-.242-4.627-.853-2.156-.922-1.394-.21-8.457-.307 2.216-.459 2.8-.448.525-.88-2.508-.478-.51-.267-4.378.23.565-1.204.958-1.206-1.562-1.64 6.656-.011 3.832-.541 16.61-.19-.223-.05-.635-.103-.814-.133l-2.06-.341c-4.222-.83 1.437.545-1.492-.554l-2.57-.65c-11.964-.17-.16.19-7.928.088-.958-.015-2.45-.162-4.524-.19 1.597-.208 3.523-.286.905-.204 10.284.259 9.755.333 14.389-.086-2.543-.43 1.765.255-1.628-.33l-4.687-.596c4.773-.402 4.311-.255 10.85-.126-.719-.05-2.228-.154-3.095-.272-2.34-.318-.644-.011-1.961-.404l-6.321-.44-12.761-.328c-.816.206-.946.457-.553.571L36.321.118c-.12-.112-.525.126-2.843-.112-2.292.695-1.641.381-1.044.571L29.701 1 26.472.956c-.905 2.926-10.778 4.027-3.832 4.849 2.539.301-.534-.543 1.334.191.836.326-2.261.337-1.437.404.266.023-.498.065-.719.067l5.966.164-.014.042c-1.677-.019-3.578-.042-4.409-.036l-4.505.122c-.544 1.088-1.677.312 3.751.697 2.615.19 3.401.269 4.745.451l-.127.381c-1.286.299-2.965.79-.86.952.407.03.352.091.419.141-5.458-.24-3.264-.249-5.813-.143 1.049.545 1.485.23-3.396 1.45l-1.564.381c-2.661.497 1.293-.234-1.791.274-7.058 1.162-3.262 1.166-1.813 1.594 1.713.507 1.782.316.314.589-.115.021-.407.082-.537.103l-3.135.305c1.648.204 2.306.227 3.114.457 1.734.497 0 .632-.057.642l-1.461.238-.498.095-1.844 1.002a5.095 5.095 0 0 1-.311.093c-.136.034-.754.137-.946.168-1.253.19.438.12-2.366.236l5.578.514c.341.012.68.041 1.015.088-5.53-.232-3.14-.303-7.518-.04-1.365 1.053-.254.722.06 1.333.532 1.027.39.055-1.626.991l6.601.651c4.407.244-.22-.046 6.9-.015-1.411.339-.666.109-.601.415l.208.19c.173.071.355.126.544.164.28.069 2.026.143 3.832.718-.151.013-1.722.225-2.472.301-.335.034-1.348.137-1.724.164-.271.021-.642.046-.925.063l-3.114.11c-.34.011-.752.019-1.097.027l-3.296.076c-2.905.04-.745.122-4.706 0 1.545.952 3.205.084 2.656.743-.239.297 0 .09-1.847.242l-2.014.131c.24.023-.781.04-1.13.069 3.638.453 3.202.242 4.625.853 2.156.924 1.396.209 8.459.307-2.215.459-2.8.45-.525.882 2.508.476.51.265 4.378-.232-.568 1.206-.958 1.206 1.562 1.642-6.656.009-3.832.539-16.61.191.223.048.635.103.814.131l2.06.343c4.223.829-1.437-.545 1.492.552l2.57.649c11.963.169.161-.191 7.925-.086.774 0 1.878.107 3.353.156l-.055.162c-.992.095-1.535.126-.026.08v-.021c-9.928-.251-9.463-.32-14.045.095 2.544.43-1.765-.255 1.629.331l4.685.594c-4.773.402-4.311.255-10.85.128.719.049 2.23.154 3.094.27 2.342.318.644.011 1.964.404l6.309.463 12.758.328c.171-.04.337-.094.493-.162l196.282.051c.124.109.539-.126 2.843.111 3.137-.952.759-.023.553-1.046l6.467.088-.003-.025zm-6.467-6.389.503.021-.52.03.017-.051zm-2.019 6.096.436.046c-.053.116-.136.222-.244.311s-.236.16-.379.209l.187-.571v.006z"/>
    </symbol>
    <symbol id="icon-heart_circle" viewBox="0 0 32 32">
      <path style="fill:var(--color2, #000)" d="M16 0A15.997 15.997 0 0 0 0 16a15.997 15.997 0 0 0 16 16 15.997 15.997 0 0 0 16-16A15.997 15.997 0 0 0 16 0z"/>
      <path fill="#fff" style="fill:var(--color3, #fff)" d="M20.946 8C16.55 8 16 11.648 16 11.648S15.452 8 11.056 8c-4.228 0-5.46 4.444-4.944 6.82C7.472 21.1 16 25.5 16 25.5s8.53-4.4 9.89-10.68c.514-2.376-.72-6.82-4.944-6.82z"/>
    </symbol>
    <symbol id="icon-like_circle" viewBox="0 0 32 32">
      <path style="fill:var(--color2, #000)" d="M16 0A15.997 15.997 0 0 0 0 16a15.997 15.997 0 0 0 16 16 15.997 15.997 0 0 0 16-16A15.997 15.997 0 0 0 16 0z"/>
      <path fill="#fff" style="fill:var(--color3, #fff)" d="M24.324 14.676c.352.246.676.49.676 1.348 0 .86-.458 1.208-.948 1.45.2.327.264.719.178 1.092-.154.688-.784 1.222-1.344 1.38.242.388.318.77.03 1.24-.37.59-.692.814-2.116.814H15c-1.976 0-3-1.092-3-2v-4.67c0-2.46 2.934-4.55 2.934-6.26l-.212-2.13c-.01-.13.016-.448.116-.54.16-.158.602-.4 1.27-.4.436 0 .726.082 1.068.246 1.162.554 1.464 1.956 1.464 3.084 0 .542-.828 2.166-.94 2.728 0 0 1.734-.384 3.758-.398 2.122-.012 3.498.38 3.498 1.684 0 .522-.438 1.046-.632 1.332zM7.2 14h1.6a1.195 1.195 0 0 1 1.2 1.2v7.6A1.195 1.195 0 0 1 8.8 24H7.2A1.195 1.195 0 0 1 6 22.8v-7.6A1.195 1.195 0 0 1 7.2 14z"/>
    </symbol>
    <symbol id="icon-more_horiz" viewBox="0 0 128 32">
      <path fill="#a7a8a8" style="fill:var(--color4, #a7a8a8)" d="M16 32c-4.4 0-8.165-1.568-11.296-4.704C1.568 24.165 0 20.4 0 16S1.568 7.832 4.704 4.696C7.835 1.565 11.6 0 16 0s8.165 1.565 11.296 4.696C30.432 7.832 32 11.6 32 16s-1.568 8.165-4.704 11.296C24.165 30.432 20.4 32 16 32zm48 0c-4.4 0-8.165-1.568-11.296-4.704C49.568 24.165 48 20.4 48 16s1.568-8.168 4.704-11.304C55.835 1.565 59.6 0 64 0s8.168 1.565 11.304 4.696C78.435 7.832 80 11.6 80 16s-1.565 8.165-4.696 11.296C72.168 30.432 68.4 32 64 32zm48 0c-4.4 0-8.168-1.568-11.304-4.704C97.566 24.165 96 20.4 96 16s1.566-8.168 4.696-11.304C103.832 1.565 107.6 0 112 0s8.168 1.565 11.304 4.696C126.434 7.832 128 11.6 128 16s-1.566 8.165-4.696 11.296C120.168 30.432 116.4 32 112 32z"/>
    </symbol>
    <symbol id="icon-cvs" viewBox="0 0 60 32">
      <path d="M0 0h59.5v32H0V0z"/>
    </symbol>
    <symbol id="icon-search" viewBox="0 0 32 32">
      <path d="m31.52 29.28-7.2-7.2c1.76-2.24 2.88-5.28 2.88-8.48C27.2 6.08 21.12 0 13.6 0S0 6.08 0 13.6s6.08 13.6 13.6 13.6c3.2 0 6.08-1.12 8.48-2.88l7.2 7.2c.32.32.8.48 1.12.48s.8-.16 1.12-.48c.64-.64.64-1.6 0-2.24zM3.2 13.6c0-5.76 4.64-10.4 10.4-10.4S24 7.84 24 13.6c0 2.88-1.12 5.44-3.04 7.36A10.283 10.283 0 0 1 13.6 24C7.84 24 3.2 19.36 3.2 13.6z"/>
    </symbol>
    <symbol id="icon-logo" viewBox="0 0 152 32">
      <path fill="#d2232e" style="fill:var(--color5, #d2232e)" d="M51.705 5.169h1.348v3.909h1.685l1.55-6.2V.385h-4.583v4.784zm-20.487 5.324c1.011 0 1.482.809 1.482 7.144h-3.302c.135-6.335.674-7.144 1.82-7.144zm6.133 12.737h-2.157v.741c0 3.1-.876 4.583-2.696 4.583-2.089 0-3.1-1.348-3.1-8.424v-.539h8.221c0-8.289-1.819-11.524-6.402-11.524s-7.548 4.717-7.548 11.996c0 7.211 2.83 11.119 7.683 11.119 4.178 0 5.998-2.359 5.998-7.345v-.607zm57.23-12.737c1.011 0 1.483.809 1.483 7.144h-3.116c.135-6.335.488-7.144 1.634-7.144zm6.133 12.737h-2.157v.741c0 3.1-.876 4.583-2.696 4.583-2.089 0-2.914-1.348-2.914-8.424v-.539h8.036c0-8.289-1.82-11.524-6.402-11.524s-7.548 4.717-7.548 11.996c0 7.211 2.831 11.119 7.683 11.119 4.178 0 5.998-2.359 5.998-7.345v-.607zm29.786 7.952c3.033 0 4.313-1.887 4.313-4.583V23.23h-2.021v3.369c0 1.416-.203 1.887-.876 1.887-.607 0-.809-.404-.809-1.685V10.627h3.706V8.538h-3.639V2.271h-2.089l-3.099 6.537h-1.82v1.752h1.618v14.961c0 3.909.674 5.661 4.717 5.661zm-15.635-17.117c0-4.178-1.887-5.93-5.93-5.93s-6.806 2.898-6.806 6.335v1.348h4.65V12.65c0-1.82.404-2.493 1.415-2.493s1.415.606 1.415 2.493v3.707c-6.132 2.089-8.019 3.639-8.019 8.828 0 4.044 1.617 5.998 4.38 5.998 2.359 0 3.437-1.618 4.043-2.628v2.224h5.998v-1.82h-1.146V14.066zm35.111 14.893V12.987c0-3.302-1.483-4.852-4.111-4.852-3.167 0-4.447 2.359-4.447 2.359V.116l-6.673.741v1.752h1.55v26.349h-1.079v1.82h7.413v-1.82h-1.077v-13.95c0-2.426.673-3.437 1.886-3.437.877 0 1.214.539 1.214 1.887v15.5h-1.214v1.82h8.02v-1.82h-1.483zm-40.367-10.715v6.874c0 2.022-.404 2.831-1.55 2.831-.876 0-1.28-.742-1.28-3.167 0-4.111.337-5.122 2.83-6.537zM86.006 28.958V2.204h1.55V.452h-9.233v1.752h1.887v12.535h-5.93V2.205h1.954V.453h-9.367v1.752h1.618v26.754h-1.618v1.82h9.367v-1.82H74.28v-12.13h5.93v12.13h-1.887v1.82h9.233v-1.82h-1.55zm37.081 0V.115l-6.942.741v1.752h1.685v26.349h-1.078v1.82h7.951v-1.82h-1.617zM66.531 24.78c0-7.143-7.682-7.615-7.682-12.333 0-1.617.809-2.426 2.089-2.426 1.954 0 2.965 1.954 3.1 6.065h1.752V9.347s-1.954-1.213-4.919-1.213c-3.572 0-6.469 2.022-6.469 6.132 0 6.739 7.48 7.683 7.48 12.265 0 1.82-.876 2.696-2.291 2.696-2.157 0-3.235-1.887-3.369-6.537H54.47v7.278s2.157 1.213 5.324 1.213c3.909 0 6.739-2.224 6.739-6.402zM22.66 28.958V2.204h1.415V.452H16.19l-3.909 17.05L8.103.452H.016v1.752h1.685v26.754H.016v1.82h6.2v-1.82H4.262V10.156l4.92 20.621h2.83l4.852-20.756v18.936h-1.819v1.82h9.03v-1.82H22.66zm29.853 0V12.987c0-3.302-1.482-4.852-4.043-4.852-3.167 0-4.448 2.359-4.448 2.359V8.135l-6.739.741v1.82h1.55v18.262h-1.617v1.82h8.019v-1.82h-1.078v-13.95c0-2.426.674-3.437 1.887-3.437.876 0 1.213.539 1.213 1.887v15.5h-1.213v1.82h7.548v-1.82h-1.078z"/>
    </symbol>
  </defs>
</svg>
